<svg width="1440" height="1024" viewBox="0 0 1440 1024" fill="none" xmlns="http://www.w3.org/2000/svg">
<g opacity="0.202044">
<circle cx="1109.5" cy="235.5" r="3.5" fill="white"/>
<circle cx="1099.5" cy="238.5" r="1.5" fill="white"/>
<circle cx="1121.5" cy="195.5" r="1.5" fill="white"/>
<circle cx="1102.5" cy="164.5" r="1.5" fill="white"/>
<circle cx="1179.5" cy="35.5" r="1.5" fill="white"/>
<circle cx="1176" cy="40" r="2" fill="white"/>
<circle cx="1153.5" cy="22.5" r="1.5" fill="white"/>
<circle cx="1146.5" cy="76.5" r="1.5" fill="white"/>
<circle cx="1298" cy="58" r="2" fill="white"/>
<circle cx="1290" cy="198" r="2" fill="white"/>
<circle cx="1316.5" cy="216.5" r="1.5" fill="white"/>
<circle cx="919" cy="95" r="2" fill="white"/>
<circle cx="888" cy="135" r="2" fill="white"/>
<circle cx="839.5" cy="153.5" r="1.5" fill="white"/>
<circle cx="828.5" cy="168.5" r="1.5" fill="white"/>
<circle cx="917" cy="276" r="4" fill="white"/>
<circle cx="806" cy="238" r="2" fill="white"/>
<circle cx="759" cy="197" r="2" fill="white"/>
<circle cx="766.5" cy="122.5" r="0.5" fill="white"/>
<circle cx="720.5" cy="147.5" r="1.5" fill="white"/>
<circle cx="1411" cy="66" r="2" fill="white"/>
<circle cx="759.5" cy="340.5" r="2.5" fill="white"/>
<circle cx="1026.5" cy="200.5" r="1.5" fill="white"/>
<circle cx="1063" cy="283" r="2" fill="white"/>
<circle cx="1161" cy="312" r="2" fill="white"/>
<circle cx="1220" cy="297" r="2" fill="white"/>
<circle cx="1188.5" cy="389.5" r="2.5" fill="white"/>
<circle cx="1228" cy="371" r="2" fill="white"/>
<circle cx="1357.5" cy="347.5" r="1.5" fill="white"/>
<circle cx="1371" cy="391" r="2" fill="white"/>
<circle cx="1205" cy="428" r="2" fill="white"/>
<circle cx="1280" cy="444" r="2" fill="white"/>
<circle cx="1371.5" cy="527.5" r="2.5" fill="white"/>
<circle cx="1350" cy="562" r="2" fill="white"/>
<circle cx="1381.5" cy="543.5" r="1.5" fill="white"/>
<circle cx="1212.5" cy="509.5" r="1.5" fill="white"/>
<circle cx="1297.5" cy="624.5" r="2.5" fill="white"/>
<circle cx="1394.5" cy="441.5" r="0.5" fill="white"/>
<circle cx="1260.5" cy="784.5" r="1.5" fill="white"/>
<circle cx="1421.5" cy="789.5" r="1.5" fill="white"/>
<circle cx="1386.5" cy="910.5" r="1.5" fill="white"/>
<circle cx="556" cy="6" r="2" fill="white"/>
<circle cx="594.5" cy="180.5" r="1.5" fill="white"/>
<circle cx="560" cy="231" r="2" fill="white"/>
<circle cx="415.5" cy="154.5" r="3.5" fill="white"/>
<circle cx="394.5" cy="145.5" r="1.5" fill="white"/>
<circle cx="340" cy="198" r="2" fill="white"/>
<circle cx="358" cy="208" r="2" fill="white"/>
<circle cx="332" cy="136" r="2" fill="white"/>
<circle cx="316" cy="231" r="2" fill="white"/>
<circle cx="327.5" cy="299.5" r="3.5" fill="white"/>
<circle cx="465.5" cy="330.5" r="1.5" fill="white"/>
<circle cx="581.5" cy="340.5" r="1.5" fill="white"/>
<circle cx="598" cy="358" r="2" fill="white"/>
<circle cx="71.5" cy="65.5" r="1.5" fill="white"/>
<circle cx="72" cy="73" r="2" fill="white"/>
<circle cx="53" cy="134" r="4" fill="white"/>
<circle cx="4.5" cy="94.5" r="0.5" fill="white"/>
<circle cx="39" cy="157" r="2" fill="white"/>
<circle cx="92" cy="292" r="4" fill="white"/>
<circle cx="216.5" cy="352.5" r="3.5" fill="white"/>
<circle cx="223.5" cy="318.5" r="1.5" fill="white"/>
<circle cx="88.5" cy="413.5" r="2.5" fill="white"/>
<circle cx="383.5" cy="439.5" r="1.5" fill="white"/>
<circle cx="440" cy="430" r="2" fill="white"/>
<circle cx="465" cy="463" r="2" fill="white"/>
<circle cx="306.5" cy="501.5" r="3.5" fill="white"/>
<circle cx="299" cy="575" r="2" fill="white"/>
<circle cx="210.5" cy="642.5" r="3.5" fill="white"/>
<circle cx="189.5" cy="677.5" r="3.5" fill="white"/>
<circle cx="183.5" cy="530.5" r="1.5" fill="white"/>
<circle cx="187.5" cy="612.5" r="1.5" fill="white"/>
<circle cx="31.5" cy="846.5" r="2.5" fill="white"/>
<circle cx="209" cy="804" r="2" fill="white"/>
<circle cx="113.5" cy="1025.5" r="2.5" fill="white"/>
<circle cx="254.5" cy="947.5" r="3.5" fill="white"/>
<circle cx="342.5" cy="1020.5" r="3.5" fill="white"/>
<circle cx="297" cy="990" r="2" fill="white"/>
<circle cx="421.5" cy="938.5" r="1.5" fill="white"/>
<circle cx="486.5" cy="1012.5" r="2.5" fill="white"/>
<circle cx="509.5" cy="1019.5" r="2.5" fill="white"/>
<circle cx="500.5" cy="1003.5" r="0.5" fill="white"/>
<circle cx="773.5" cy="894.5" r="2.5" fill="white"/>
<circle cx="829" cy="1023" r="2" fill="white"/>
<circle cx="917.5" cy="1018.5" r="2.5" fill="white"/>
<circle cx="916" cy="1011" r="2" fill="white"/>
<circle cx="957.5" cy="1018.5" r="2.5" fill="white"/>
<circle cx="861" cy="934" r="2" fill="white"/>
<circle cx="899" cy="791" r="2" fill="white"/>
<circle cx="645.5" cy="714.5" r="1.5" fill="white"/>
<circle cx="785" cy="879" r="2" fill="white"/>
<circle cx="787.5" cy="948.5" r="2.5" fill="white"/>
<circle cx="1109.5" cy="888.5" r="3.5" fill="white"/>
<circle cx="862" cy="461" r="4" fill="white"/>
<circle cx="966.5" cy="394.5" r="3.5" fill="white"/>
<circle cx="946.5" cy="413.5" r="1.5" fill="white"/>
<circle cx="531" cy="826" r="2" fill="white"/>
<circle cx="553.5" cy="805.5" r="1.5" fill="white"/>
<circle cx="400" cy="825" r="2" fill="white"/>
<circle cx="822" cy="400" r="2" fill="white"/>
<circle cx="637.5" cy="440.5" r="1.5" fill="white"/>
<circle cx="648.5" cy="392.5" r="1.5" fill="white"/>
<circle cx="416.5" cy="525.5" r="3.5" fill="white"/>
<circle cx="412.5" cy="604.5" r="1.5" fill="white"/>
<circle cx="541" cy="630" r="2" fill="white"/>
<circle cx="556.5" cy="556.5" r="2.5" fill="white"/>
<circle cx="483.5" cy="535.5" r="1.5" fill="white"/>
<circle cx="854.5" cy="717.5" r="3.5" fill="white"/>
<circle cx="880.5" cy="662.5" r="3.5" fill="white"/>
<circle cx="770" cy="689" r="2" fill="white"/>
<circle cx="957" cy="538" r="2" fill="white"/>
</g>
</svg>
